<svg xmlns="http://www.w3.org/2000/svg" id="export" class="canvas" preserveAspectRatio="xMidYMid meet" style="" width="1367" height="209"><rect id="background" fill="#fff" pointer-events="all" style="" width="1367" height="209"/><g id="origin" transform="translate(9.5, 9.5) scale(1)"><g id="clusters" class="clusters"/><g id="edge-paths" class="edge-paths" style="pointer-events: none;"><defs><marker id="arrowhead" viewBox="0 0 10 10" refX="9" refY="5" markerUnits="strokeWidth" markerWidth="8" markerHeight="6" orient="auto" style="fill: rgb(0, 0, 0);"><path d="M 0 0 L 10 5 L 0 10 L 4 5 z" style="stroke-width: 1;"/></marker><marker id="arrowhead-select" viewBox="0 0 10 10" refX="9" refY="5" markerUnits="strokeWidth" markerWidth="8" markerHeight="6" orient="auto" style="fill: rgba(220, 0, 0, 0.9);"><path d="M 0 0 L 10 5 L 0 10 L 4 5 z" style="stroke-width: 1;"/></marker><marker id="arrowhead-hover" viewBox="0 0 10 10" refX="9" refY="5" markerUnits="strokeWidth" markerWidth="8" markerHeight="6" orient="auto" style="fill: rgba(220, 0, 0, 0.9);"><path d="M 0 0 L 10 5 L 0 10 L 4 5 z" style="stroke-width: 1;"/></marker></defs><path id="edge-input" class="edge-path" d="M26.31607142857143,106.5L30.193568638392858,113.33333333333333C34.07106584821429,120.16666666666667,41.826060267857144,133.83333333333334,47.37022414434524,140.66666666666666C52.914388020833336,147.5,56.247721354166664,147.5,59.5810546875,147.5C62.914388020833336,147.5,66.24772135416667,147.5,69.5810546875,147.5C72.91438802083333,147.5,76.24772135416667,147.5,77.91438802083333,147.5L79.5810546875,147.5" style="stroke: rgb(0, 0, 0); stroke-width: 1px; fill: none; marker-end: url(&quot;#arrowhead&quot;);"/><path id="edge-input" class="edge-path" d="M26.31607142857143,83.5L30.193568638392858,76.66666666666667C34.07106584821429,69.83333333333333,41.826060267857144,56.166666666666664,47.37022414434524,49.333333333333336C52.914388020833336,42.5,56.247721354166664,42.5,59.5810546875,42.5C62.914388020833336,42.5,66.24772135416667,42.5,69.5810546875,42.5C72.91438802083333,42.5,76.24772135416667,42.5,77.91438802083333,42.5L79.5810546875,42.5" style="stroke: rgb(0, 0, 0); stroke-width: 1px; fill: none; marker-end: url(&quot;#arrowhead&quot;);"/><path id="edge-/Slice_output_0" class="edge-path" d="M154.5810546875,147.5L156.24772135416666,147.5C157.91438802083334,147.5,161.24772135416666,147.5,164.5810546875,147.5C167.91438802083334,147.5,171.24772135416666,147.5,172.91438802083334,147.5L174.5810546875,147.5" style="stroke: rgb(0, 0, 0); stroke-width: 1px; fill: none; marker-end: url(&quot;#arrowhead&quot;);"/><path id="edge-/Slice_1_output_0" class="edge-path" d="M154.5810546875,42.5L156.24772135416666,42.5C157.91438802083334,42.5,161.24772135416666,42.5,164.5810546875,42.5C167.91438802083334,42.5,171.24772135416666,42.5,172.91438802083334,42.5L174.5810546875,42.5" style="stroke: rgb(0, 0, 0); stroke-width: 1px; fill: none; marker-end: url(&quot;#arrowhead&quot;);"/><path id="edge-/conv1_full/Conv_output_0" class="edge-path" d="M257.3623046875,147.5L259.0289713541667,147.5C260.6956380208333,147.5,264.0289713541667,147.5,269.6383463541667,147.5C275.2477213541667,147.5,283.1331380208333,147.5,287.0758463541667,147.5L291.0185546875,147.5" style="stroke: rgb(0, 0, 0); stroke-width: 1px; fill: none; marker-end: url(&quot;#arrowhead&quot;);"/><path id="edge-/Relu_output_0" class="edge-path" d="M325.9248046875,147.5L329.8675130208333,147.5C333.8102213541667,147.5,341.6956380208333,147.5,347.3050130208333,147.5C352.9143880208333,147.5,356.2477213541667,147.5,357.9143880208333,147.5L359.5810546875,147.5" style="stroke: rgb(0, 0, 0); stroke-width: 1px; fill: none; marker-end: url(&quot;#arrowhead&quot;);"/><path id="edge-/conv2_full/Conv_output_0" class="edge-path" d="M447.2216796875,147.5L448.8883463541667,147.5C450.5550130208333,147.5,453.8883463541667,147.5,459.4977213541667,147.5C465.1070963541667,147.5,472.9925130208333,147.5,476.9352213541667,147.5L480.8779296875,147.5" style="stroke: rgb(0, 0, 0); stroke-width: 1px; fill: none; marker-end: url(&quot;#arrowhead&quot;);"/><path id="edge-/Relu_1_output_0" class="edge-path" d="M515.7841796875,147.5L519.7268880208334,147.5C523.6695963541666,147.5,531.5550130208334,147.5,539.0811538938492,140.66666666666666C546.607294766865,133.83333333333334,553.7741598462302,120.16666666666667,557.3575923859127,113.33333333333333L560.9410249255952,106.5" style="stroke: rgb(0, 0, 0); stroke-width: 1px; fill: none; marker-end: url(&quot;#arrowhead&quot;);"/><path id="edge-/conv1_diff/Conv_output_0" class="edge-path" d="M257.3623046875,42.5L259.0289713541667,42.5C260.6956380208333,42.5,264.0289713541667,42.5,267.3623046875,42.5C270.6956380208333,42.5,274.0289713541667,42.5,275.6956380208333,42.5L277.3623046875,42.5" style="stroke: rgb(0, 0, 0); stroke-width: 1px; fill: none; marker-end: url(&quot;#arrowhead&quot;);"/><path id="edge-/LeakyRelu_output_0" class="edge-path" d="M339.5810546875,42.5L341.2477213541667,42.5C342.9143880208333,42.5,346.2477213541667,42.5,349.5810546875,42.5C352.9143880208333,42.5,356.2477213541667,42.5,357.9143880208333,42.5L359.5810546875,42.5" style="stroke: rgb(0, 0, 0); stroke-width: 1px; fill: none; marker-end: url(&quot;#arrowhead&quot;);"/><path id="edge-/conv2_diff/Conv_output_0" class="edge-path" d="M447.2216796875,42.5L448.8883463541667,42.5C450.5550130208333,42.5,453.8883463541667,42.5,457.2216796875,42.5C460.5550130208333,42.5,463.8883463541667,42.5,465.5550130208333,42.5L467.2216796875,42.5" style="stroke: rgb(0, 0, 0); stroke-width: 1px; fill: none; marker-end: url(&quot;#arrowhead&quot;);"/><path id="edge-/LeakyRelu_1_output_0" class="edge-path" d="M529.4404296875,42.5L531.1070963541666,42.5C532.7737630208334,42.5,536.1070963541666,42.5,541.3571955605158,49.333333333333336C546.607294766865,56.166666666666664,553.7741598462302,69.83333333333333,557.3575923859127,76.66666666666667L560.9410249255952,83.5" style="stroke: rgb(0, 0, 0); stroke-width: 1px; fill: none; marker-end: url(&quot;#arrowhead&quot;);"/><path id="edge-/Add_output_0" class="edge-path" d="M584.5029296875,95L586.1695963541666,95C587.8362630208334,95,591.1695963541666,95,594.5029296875,95C597.8362630208334,95,601.1695963541666,95,602.8362630208334,95L604.5029296875,95" style="stroke: rgb(0, 0, 0); stroke-width: 1px; fill: none; marker-end: url(&quot;#arrowhead&quot;);"/><path id="edge-/fuse_conv/Conv_output_0" class="edge-path" d="M692.1435546875,95L693.8102213541666,95C695.4768880208334,95,698.8102213541666,95,702.1435546875,95C705.4768880208334,95,708.8102213541666,95,710.4768880208334,95L712.1435546875,95" style="stroke: rgb(0, 0, 0); stroke-width: 1px; fill: none; marker-end: url(&quot;#arrowhead&quot;);"/><path id="edge-/Relu_2_output_0" class="edge-path" d="M747.0498046875,95L748.7164713541666,95C750.3831380208334,95,753.7164713541666,95,757.0498046875,95C760.3831380208334,95,763.7164713541666,95,765.3831380208334,95L767.0498046875,95" style="stroke: rgb(0, 0, 0); stroke-width: 1px; fill: none; marker-end: url(&quot;#arrowhead&quot;);"/><path id="edge-/conv3_combined/Conv_output_0" class="edge-path" d="M854.6904296875,95L856.3570963541666,95C858.0237630208334,95,861.3570963541666,95,864.6904296875,95C868.0237630208334,95,871.3570963541666,95,873.0237630208334,95L874.6904296875,95" style="stroke: rgb(0, 0, 0); stroke-width: 1px; fill: none; marker-end: url(&quot;#arrowhead&quot;);"/><path id="edge-/Relu_3_output_0" class="edge-path" d="M909.5966796875,95L911.2633463541666,95C912.9300130208334,95,916.2633463541666,95,919.5966796875,95C922.9300130208334,95,926.2633463541666,95,927.9300130208334,95L929.5966796875,95" style="stroke: rgb(0, 0, 0); stroke-width: 1px; fill: none; marker-end: url(&quot;#arrowhead&quot;);"/><path id="edge-/Flatten_output_0" class="edge-path" d="M976.6748046875,95L978.3414713541666,95C980.0081380208334,95,983.3414713541666,95,986.6748046875,95C990.0081380208334,95,993.3414713541666,95,995.0081380208334,95L996.6748046875,95" style="stroke: rgb(0, 0, 0); stroke-width: 1px; fill: none; marker-end: url(&quot;#arrowhead&quot;);"/><path id="edge-/fc/Gemm_output_0" class="edge-path" d="M1072.5810546875,95L1074.2477213541667,95C1075.9143880208333,95,1079.2477213541667,95,1082.5810546875,95C1085.9143880208333,95,1089.2477213541667,95,1090.9143880208333,95L1092.5810546875,95" style="stroke: rgb(0, 0, 0); stroke-width: 1px; fill: none; marker-end: url(&quot;#arrowhead&quot;);"/><path id="edge-/Relu_4_output_0" class="edge-path" d="M1127.4873046875,95L1129.1539713541667,95C1130.8206380208333,95,1134.1539713541667,95,1137.4873046875,95C1140.8206380208333,95,1144.1539713541667,95,1145.8206380208333,95L1147.4873046875,95" style="stroke: rgb(0, 0, 0); stroke-width: 1px; fill: none; marker-end: url(&quot;#arrowhead&quot;);"/><path id="edge-output" class="edge-path" d="M1222.4873046875,95L1228.9404296875,95C1235.3935546875,95,1248.2998046875,95,1261.2060546875,95C1274.1123046875,95,1287.0185546875,95,1293.4716796875,95L1299.9248046875,95" style="stroke: rgb(0, 0, 0); stroke-width: 1px; fill: none; marker-end: url(&quot;#arrowhead&quot;);"/></g><g id="edge-labels" class="edge-labels"><text class="edge-label" id="edge-label-edge-output" style="opacity: 1; font-family: -apple-system, BlinkMacSystemFont, &quot;Segoe WPC&quot;, &quot;Segoe UI&quot;, Ubuntu, &quot;Droid Sans&quot;, sans-serif, &quot;PingFang SC&quot;; font-size: 10px;" transform="translate(1232.4873046875,105)"><tspan xml:space="preserve" dy="1em" x="1">batch_size×3</tspan></text></g><g id="nodes" class="nodes"><g id="input-name-input" class="node graph-input select" style="" transform="translate(0,83.5)"><g class="node-item graph-item-input" transform="translate(0,0)"><path d="M5,0h29.5810546875a5,5 0 0 1 5,5v13a5,5 0 0 1 -5,5h-29.5810546875a5,5 0 0 1 -5,-5v-13a5,5 0 0 1 5,-5z" style="stroke: rgb(0, 0, 0); fill: rgb(238, 238, 238); stroke-width: 0;"/><text x="6" y="16" style="font-family: -apple-system, BlinkMacSystemFont, &quot;Segoe WPC&quot;, &quot;Segoe UI&quot;, Ubuntu, &quot;Droid Sans&quot;, sans-serif, &quot;PingFang SC&quot;; font-size: 11px; text-rendering: geometricprecision; user-select: none;">input</text><title>float32[batch_size,6,84,84]</title></g><path class="node node-border" d="M5,0h29.5810546875a5,5 0 0 1 5,5v13a5,5 0 0 1 -5,5h-29.5810546875a5,5 0 0 1 -5,-5v-13a5,5 0 0 1 5,-5z" style="stroke: rgba(220, 0, 0, 0.9); fill: none; stroke-width: 2px;"/></g><g id="node-name-/Slice" class="node graph-node" style="" transform="translate(79.5810546875,105)"><g class="node-item node-item-type node-item-type-tensor" transform="translate(0,0)"><path d="M5,0h65a5,5 0 0 1 5,5v18a0,0 0 0 1 0,0h-75a0,0 0 0 1 0,0v-18a5,5 0 0 1 5,-5z" style="stroke: rgb(0, 0, 0); fill: rgb(89, 66, 59); stroke-width: 0;"/><text x="6" y="16" style="font-family: -apple-system, BlinkMacSystemFont, &quot;Segoe WPC&quot;, &quot;Segoe UI&quot;, Ubuntu, &quot;Droid Sans&quot;, sans-serif, &quot;PingFang SC&quot;; font-size: 11px; text-rendering: geometricprecision; user-select: none; fill: rgb(255, 255, 255);">Slice</text><title>/Slice</title></g><g class="node-argument-list" transform="translate(0,23)"><path d="M0,0h75a0,0 0 0 1 0,0v57a5,5 0 0 1 -5,5h-65a5,5 0 0 1 -5,-5v-57a0,0 0 0 1 0,0z" style="stroke: rgb(0, 0, 0); fill: rgb(255, 255, 255); stroke-width: 0;"/><g class="node-argument"><rect rx="3" ry="3" x="3" y="3" width="69" height="14" style="fill: transparent;"/><text xml:space="preserve" x="6" y="14" style="font-family: -apple-system, BlinkMacSystemFont, &quot;Segoe WPC&quot;, &quot;Segoe UI&quot;, Ubuntu, &quot;Droid Sans&quot;, sans-serif, &quot;PingFang SC&quot;; font-size: 9px; font-weight: normal; text-rendering: geometricprecision; user-select: none;"><title>int64[1]</title><tspan style="font-weight: bold;">starts</tspan><tspan>〈1〉</tspan></text></g><g class="node-argument"><rect rx="3" ry="3" x="3" y="17" width="69" height="14" style="fill: transparent;"/><text xml:space="preserve" x="6" y="28" style="font-family: -apple-system, BlinkMacSystemFont, &quot;Segoe WPC&quot;, &quot;Segoe UI&quot;, Ubuntu, &quot;Droid Sans&quot;, sans-serif, &quot;PingFang SC&quot;; font-size: 9px; font-weight: normal; text-rendering: geometricprecision; user-select: none;"><title>int64[1]</title><tspan style="font-weight: bold;">ends</tspan><tspan>〈1〉</tspan></text></g><g class="node-argument"><rect rx="3" ry="3" x="3" y="31" width="69" height="14" style="fill: transparent;"/><text xml:space="preserve" x="6" y="42" style="font-family: -apple-system, BlinkMacSystemFont, &quot;Segoe WPC&quot;, &quot;Segoe UI&quot;, Ubuntu, &quot;Droid Sans&quot;, sans-serif, &quot;PingFang SC&quot;; font-size: 9px; font-weight: normal; text-rendering: geometricprecision; user-select: none;"><title>int64[1]</title><tspan style="font-weight: bold;">axes</tspan><tspan>〈1〉</tspan></text></g><g class="node-argument"><rect rx="3" ry="3" x="3" y="45" width="69" height="14" style="fill: transparent;"/><text xml:space="preserve" x="6" y="56" style="font-family: -apple-system, BlinkMacSystemFont, &quot;Segoe WPC&quot;, &quot;Segoe UI&quot;, Ubuntu, &quot;Droid Sans&quot;, sans-serif, &quot;PingFang SC&quot;; font-size: 9px; font-weight: normal; text-rendering: geometricprecision; user-select: none;"><title>int64[1]</title><tspan style="font-weight: bold;">steps</tspan><tspan>〈1〉</tspan></text></g><line class="node" x1="0" x2="75" y1="0" y2="0" style="stroke: rgb(51, 51, 51); fill: none; stroke-width: 1px;"/></g><path class="node node-border" d="M5,0h65a5,5 0 0 1 5,5v75a5,5 0 0 1 -5,5h-65a5,5 0 0 1 -5,-5v-75a5,5 0 0 1 5,-5z" style="stroke: rgb(51, 51, 51); fill: none; stroke-width: 1px;"/></g><g id="node-name-/Slice_1" class="node graph-node" style="" transform="translate(79.5810546875,0)"><g class="node-item node-item-type node-item-type-tensor" transform="translate(0,0)"><path d="M5,0h65a5,5 0 0 1 5,5v18a0,0 0 0 1 0,0h-75a0,0 0 0 1 0,0v-18a5,5 0 0 1 5,-5z" style="stroke: rgb(0, 0, 0); fill: rgb(89, 66, 59); stroke-width: 0;"/><text x="6" y="16" style="font-family: -apple-system, BlinkMacSystemFont, &quot;Segoe WPC&quot;, &quot;Segoe UI&quot;, Ubuntu, &quot;Droid Sans&quot;, sans-serif, &quot;PingFang SC&quot;; font-size: 11px; text-rendering: geometricprecision; user-select: none; fill: rgb(255, 255, 255);">Slice</text><title>/Slice_1</title></g><g class="node-argument-list" transform="translate(0,23)"><path d="M0,0h75a0,0 0 0 1 0,0v57a5,5 0 0 1 -5,5h-65a5,5 0 0 1 -5,-5v-57a0,0 0 0 1 0,0z" style="stroke: rgb(0, 0, 0); fill: rgb(255, 255, 255); stroke-width: 0;"/><g class="node-argument"><rect rx="3" ry="3" x="3" y="3" width="69" height="14" style="fill: transparent;"/><text xml:space="preserve" x="6" y="14" style="font-family: -apple-system, BlinkMacSystemFont, &quot;Segoe WPC&quot;, &quot;Segoe UI&quot;, Ubuntu, &quot;Droid Sans&quot;, sans-serif, &quot;PingFang SC&quot;; font-size: 9px; font-weight: normal; text-rendering: geometricprecision; user-select: none;"><title>int64[1]</title><tspan style="font-weight: bold;">starts</tspan><tspan>〈1〉</tspan></text></g><g class="node-argument"><rect rx="3" ry="3" x="3" y="17" width="69" height="14" style="fill: transparent;"/><text xml:space="preserve" x="6" y="28" style="font-family: -apple-system, BlinkMacSystemFont, &quot;Segoe WPC&quot;, &quot;Segoe UI&quot;, Ubuntu, &quot;Droid Sans&quot;, sans-serif, &quot;PingFang SC&quot;; font-size: 9px; font-weight: normal; text-rendering: geometricprecision; user-select: none;"><title>int64[1]</title><tspan style="font-weight: bold;">ends</tspan><tspan>〈1〉</tspan></text></g><g class="node-argument"><rect rx="3" ry="3" x="3" y="31" width="69" height="14" style="fill: transparent;"/><text xml:space="preserve" x="6" y="42" style="font-family: -apple-system, BlinkMacSystemFont, &quot;Segoe WPC&quot;, &quot;Segoe UI&quot;, Ubuntu, &quot;Droid Sans&quot;, sans-serif, &quot;PingFang SC&quot;; font-size: 9px; font-weight: normal; text-rendering: geometricprecision; user-select: none;"><title>int64[1]</title><tspan style="font-weight: bold;">axes</tspan><tspan>〈1〉</tspan></text></g><g class="node-argument"><rect rx="3" ry="3" x="3" y="45" width="69" height="14" style="fill: transparent;"/><text xml:space="preserve" x="6" y="56" style="font-family: -apple-system, BlinkMacSystemFont, &quot;Segoe WPC&quot;, &quot;Segoe UI&quot;, Ubuntu, &quot;Droid Sans&quot;, sans-serif, &quot;PingFang SC&quot;; font-size: 9px; font-weight: normal; text-rendering: geometricprecision; user-select: none;"><title>int64[1]</title><tspan style="font-weight: bold;">steps</tspan><tspan>〈1〉</tspan></text></g><line class="node" x1="0" x2="75" y1="0" y2="0" style="stroke: rgb(51, 51, 51); fill: none; stroke-width: 1px;"/></g><path class="node node-border" d="M5,0h65a5,5 0 0 1 5,5v75a5,5 0 0 1 -5,5h-65a5,5 0 0 1 -5,-5v-75a5,5 0 0 1 5,-5z" style="stroke: rgb(51, 51, 51); fill: none; stroke-width: 1px;"/></g><g id="node-name-/conv1_full/Conv" class="node graph-node" style="" transform="translate(174.5810546875,119)"><g class="node-item node-item-type node-item-type-layer" transform="translate(0,0)"><path d="M5,0h72.78125a5,5 0 0 1 5,5v18a0,0 0 0 1 0,0h-82.78125a0,0 0 0 1 0,0v-18a5,5 0 0 1 5,-5z" style="stroke: rgb(0, 0, 0); fill: rgb(51, 85, 136); stroke-width: 0;"/><text x="6" y="16" style="font-family: -apple-system, BlinkMacSystemFont, &quot;Segoe WPC&quot;, &quot;Segoe UI&quot;, Ubuntu, &quot;Droid Sans&quot;, sans-serif, &quot;PingFang SC&quot;; font-size: 11px; text-rendering: geometricprecision; user-select: none; fill: rgb(255, 255, 255);">Conv</text><title>/conv1_full/Conv</title></g><g class="node-argument-list" transform="translate(0,23)"><path d="M0,0h82.78125a0,0 0 0 1 0,0v29a5,5 0 0 1 -5,5h-72.78125a5,5 0 0 1 -5,-5v-29a0,0 0 0 1 0,0z" style="stroke: rgb(0, 0, 0); fill: rgb(255, 255, 255); stroke-width: 0;"/><g class="node-argument"><rect rx="3" ry="3" x="3" y="3" width="76.78125" height="14" style="fill: transparent;"/><text xml:space="preserve" x="6" y="14" style="font-family: -apple-system, BlinkMacSystemFont, &quot;Segoe WPC&quot;, &quot;Segoe UI&quot;, Ubuntu, &quot;Droid Sans&quot;, sans-serif, &quot;PingFang SC&quot;; font-size: 9px; font-weight: normal; text-rendering: geometricprecision; user-select: none;"><title>float32[32,4,8,8]</title><tspan style="font-weight: bold;">W</tspan><tspan>〈32×4×8×8〉</tspan></text></g><g class="node-argument"><rect rx="3" ry="3" x="3" y="17" width="76.78125" height="14" style="fill: transparent;"/><text xml:space="preserve" x="6" y="28" style="font-family: -apple-system, BlinkMacSystemFont, &quot;Segoe WPC&quot;, &quot;Segoe UI&quot;, Ubuntu, &quot;Droid Sans&quot;, sans-serif, &quot;PingFang SC&quot;; font-size: 9px; font-weight: normal; text-rendering: geometricprecision; user-select: none;"><title>float32[32]</title><tspan style="font-weight: bold;">B</tspan><tspan>〈32〉</tspan></text></g><line class="node" x1="0" x2="82.78125" y1="0" y2="0" style="stroke: rgb(51, 51, 51); fill: none; stroke-width: 1px;"/></g><path class="node node-border" d="M5,0h72.78125a5,5 0 0 1 5,5v47a5,5 0 0 1 -5,5h-72.78125a5,5 0 0 1 -5,-5v-47a5,5 0 0 1 5,-5z" style="stroke: rgb(51, 51, 51); fill: none; stroke-width: 1px;"/></g><g id="node-name-/Relu" class="node graph-node" style="" transform="translate(291.0185546875,136)"><g class="node-item node-item-type node-item-type-activation" transform="translate(0,0)"><path d="M5,0h24.90625a5,5 0 0 1 5,5v13a5,5 0 0 1 -5,5h-24.90625a5,5 0 0 1 -5,-5v-13a5,5 0 0 1 5,-5z" style="stroke: rgb(0, 0, 0); fill: rgb(112, 41, 33); stroke-width: 0;"/><text x="6" y="16" style="font-family: -apple-system, BlinkMacSystemFont, &quot;Segoe WPC&quot;, &quot;Segoe UI&quot;, Ubuntu, &quot;Droid Sans&quot;, sans-serif, &quot;PingFang SC&quot;; font-size: 11px; text-rendering: geometricprecision; user-select: none; fill: rgb(255, 255, 255);">Relu</text><title>/Relu</title></g><path class="node node-border" d="M5,0h24.90625a5,5 0 0 1 5,5v13a5,5 0 0 1 -5,5h-24.90625a5,5 0 0 1 -5,-5v-13a5,5 0 0 1 5,-5z" style="stroke: rgb(51, 51, 51); fill: none; stroke-width: 1px;"/></g><g id="node-name-/conv2_full/Conv" class="node graph-node" style="" transform="translate(359.5810546875,119)"><g class="node-item node-item-type node-item-type-layer" transform="translate(0,0)"><path d="M5,0h77.640625a5,5 0 0 1 5,5v18a0,0 0 0 1 0,0h-87.640625a0,0 0 0 1 0,0v-18a5,5 0 0 1 5,-5z" style="stroke: rgb(0, 0, 0); fill: rgb(51, 85, 136); stroke-width: 0;"/><text x="6" y="16" style="font-family: -apple-system, BlinkMacSystemFont, &quot;Segoe WPC&quot;, &quot;Segoe UI&quot;, Ubuntu, &quot;Droid Sans&quot;, sans-serif, &quot;PingFang SC&quot;; font-size: 11px; text-rendering: geometricprecision; user-select: none; fill: rgb(255, 255, 255);">Conv</text><title>/conv2_full/Conv</title></g><g class="node-argument-list" transform="translate(0,23)"><path d="M0,0h87.640625a0,0 0 0 1 0,0v29a5,5 0 0 1 -5,5h-77.640625a5,5 0 0 1 -5,-5v-29a0,0 0 0 1 0,0z" style="stroke: rgb(0, 0, 0); fill: rgb(255, 255, 255); stroke-width: 0;"/><g class="node-argument"><rect rx="3" ry="3" x="3" y="3" width="81.640625" height="14" style="fill: transparent;"/><text xml:space="preserve" x="6" y="14" style="font-family: -apple-system, BlinkMacSystemFont, &quot;Segoe WPC&quot;, &quot;Segoe UI&quot;, Ubuntu, &quot;Droid Sans&quot;, sans-serif, &quot;PingFang SC&quot;; font-size: 9px; font-weight: normal; text-rendering: geometricprecision; user-select: none;"><title>float32[64,32,3,3]</title><tspan style="font-weight: bold;">W</tspan><tspan>〈64×32×3×3〉</tspan></text></g><g class="node-argument"><rect rx="3" ry="3" x="3" y="17" width="81.640625" height="14" style="fill: transparent;"/><text xml:space="preserve" x="6" y="28" style="font-family: -apple-system, BlinkMacSystemFont, &quot;Segoe WPC&quot;, &quot;Segoe UI&quot;, Ubuntu, &quot;Droid Sans&quot;, sans-serif, &quot;PingFang SC&quot;; font-size: 9px; font-weight: normal; text-rendering: geometricprecision; user-select: none;"><title>float32[64]</title><tspan style="font-weight: bold;">B</tspan><tspan>〈64〉</tspan></text></g><line class="node" x1="0" x2="87.640625" y1="0" y2="0" style="stroke: rgb(51, 51, 51); fill: none; stroke-width: 1px;"/></g><path class="node node-border" d="M5,0h77.640625a5,5 0 0 1 5,5v47a5,5 0 0 1 -5,5h-77.640625a5,5 0 0 1 -5,-5v-47a5,5 0 0 1 5,-5z" style="stroke: rgb(51, 51, 51); fill: none; stroke-width: 1px;"/></g><g id="node-name-/Relu_1" class="node graph-node" style="" transform="translate(480.8779296875,136)"><g class="node-item node-item-type node-item-type-activation" transform="translate(0,0)"><path d="M5,0h24.90625a5,5 0 0 1 5,5v13a5,5 0 0 1 -5,5h-24.90625a5,5 0 0 1 -5,-5v-13a5,5 0 0 1 5,-5z" style="stroke: rgb(0, 0, 0); fill: rgb(112, 41, 33); stroke-width: 0;"/><text x="6" y="16" style="font-family: -apple-system, BlinkMacSystemFont, &quot;Segoe WPC&quot;, &quot;Segoe UI&quot;, Ubuntu, &quot;Droid Sans&quot;, sans-serif, &quot;PingFang SC&quot;; font-size: 11px; text-rendering: geometricprecision; user-select: none; fill: rgb(255, 255, 255);">Relu</text><title>/Relu_1</title></g><path class="node node-border" d="M5,0h24.90625a5,5 0 0 1 5,5v13a5,5 0 0 1 -5,5h-24.90625a5,5 0 0 1 -5,-5v-13a5,5 0 0 1 5,-5z" style="stroke: rgb(51, 51, 51); fill: none; stroke-width: 1px;"/></g><g id="node-name-/conv1_diff/Conv" class="node graph-node" style="" transform="translate(174.5810546875,14)"><g class="node-item node-item-type node-item-type-layer" transform="translate(0,0)"><path d="M5,0h72.78125a5,5 0 0 1 5,5v18a0,0 0 0 1 0,0h-82.78125a0,0 0 0 1 0,0v-18a5,5 0 0 1 5,-5z" style="stroke: rgb(0, 0, 0); fill: rgb(51, 85, 136); stroke-width: 0;"/><text x="6" y="16" style="font-family: -apple-system, BlinkMacSystemFont, &quot;Segoe WPC&quot;, &quot;Segoe UI&quot;, Ubuntu, &quot;Droid Sans&quot;, sans-serif, &quot;PingFang SC&quot;; font-size: 11px; text-rendering: geometricprecision; user-select: none; fill: rgb(255, 255, 255);">Conv</text><title>/conv1_diff/Conv</title></g><g class="node-argument-list" transform="translate(0,23)"><path d="M0,0h82.78125a0,0 0 0 1 0,0v29a5,5 0 0 1 -5,5h-72.78125a5,5 0 0 1 -5,-5v-29a0,0 0 0 1 0,0z" style="stroke: rgb(0, 0, 0); fill: rgb(255, 255, 255); stroke-width: 0;"/><g class="node-argument"><rect rx="3" ry="3" x="3" y="3" width="76.78125" height="14" style="fill: transparent;"/><text xml:space="preserve" x="6" y="14" style="font-family: -apple-system, BlinkMacSystemFont, &quot;Segoe WPC&quot;, &quot;Segoe UI&quot;, Ubuntu, &quot;Droid Sans&quot;, sans-serif, &quot;PingFang SC&quot;; font-size: 9px; font-weight: normal; text-rendering: geometricprecision; user-select: none;"><title>float32[16,2,4,4]</title><tspan style="font-weight: bold;">W</tspan><tspan>〈16×2×4×4〉</tspan></text></g><g class="node-argument"><rect rx="3" ry="3" x="3" y="17" width="76.78125" height="14" style="fill: transparent;"/><text xml:space="preserve" x="6" y="28" style="font-family: -apple-system, BlinkMacSystemFont, &quot;Segoe WPC&quot;, &quot;Segoe UI&quot;, Ubuntu, &quot;Droid Sans&quot;, sans-serif, &quot;PingFang SC&quot;; font-size: 9px; font-weight: normal; text-rendering: geometricprecision; user-select: none;"><title>float32[16]</title><tspan style="font-weight: bold;">B</tspan><tspan>〈16〉</tspan></text></g><line class="node" x1="0" x2="82.78125" y1="0" y2="0" style="stroke: rgb(51, 51, 51); fill: none; stroke-width: 1px;"/></g><path class="node node-border" d="M5,0h72.78125a5,5 0 0 1 5,5v47a5,5 0 0 1 -5,5h-72.78125a5,5 0 0 1 -5,-5v-47a5,5 0 0 1 5,-5z" style="stroke: rgb(51, 51, 51); fill: none; stroke-width: 1px;"/></g><g id="node-name-/LeakyRelu" class="node graph-node" style="" transform="translate(277.3623046875,31)"><g class="node-item node-item-type node-item-type-activation" transform="translate(0,0)"><path d="M5,0h52.21875a5,5 0 0 1 5,5v13a5,5 0 0 1 -5,5h-52.21875a5,5 0 0 1 -5,-5v-13a5,5 0 0 1 5,-5z" style="stroke: rgb(0, 0, 0); fill: rgb(112, 41, 33); stroke-width: 0;"/><text x="6" y="16" style="font-family: -apple-system, BlinkMacSystemFont, &quot;Segoe WPC&quot;, &quot;Segoe UI&quot;, Ubuntu, &quot;Droid Sans&quot;, sans-serif, &quot;PingFang SC&quot;; font-size: 11px; text-rendering: geometricprecision; user-select: none; fill: rgb(255, 255, 255);">LeakyRelu</text><title>/LeakyRelu</title></g><path class="node node-border" d="M5,0h52.21875a5,5 0 0 1 5,5v13a5,5 0 0 1 -5,5h-52.21875a5,5 0 0 1 -5,-5v-13a5,5 0 0 1 5,-5z" style="stroke: rgb(51, 51, 51); fill: none; stroke-width: 1px;"/></g><g id="node-name-/conv2_diff/Conv" class="node graph-node" style="" transform="translate(359.5810546875,14)"><g class="node-item node-item-type node-item-type-layer" transform="translate(0,0)"><path d="M5,0h77.640625a5,5 0 0 1 5,5v18a0,0 0 0 1 0,0h-87.640625a0,0 0 0 1 0,0v-18a5,5 0 0 1 5,-5z" style="stroke: rgb(0, 0, 0); fill: rgb(51, 85, 136); stroke-width: 0;"/><text x="6" y="16" style="font-family: -apple-system, BlinkMacSystemFont, &quot;Segoe WPC&quot;, &quot;Segoe UI&quot;, Ubuntu, &quot;Droid Sans&quot;, sans-serif, &quot;PingFang SC&quot;; font-size: 11px; text-rendering: geometricprecision; user-select: none; fill: rgb(255, 255, 255);">Conv</text><title>/conv2_diff/Conv</title></g><g class="node-argument-list" transform="translate(0,23)"><path d="M0,0h87.640625a0,0 0 0 1 0,0v29a5,5 0 0 1 -5,5h-77.640625a5,5 0 0 1 -5,-5v-29a0,0 0 0 1 0,0z" style="stroke: rgb(0, 0, 0); fill: rgb(255, 255, 255); stroke-width: 0;"/><g class="node-argument"><rect rx="3" ry="3" x="3" y="3" width="81.640625" height="14" style="fill: transparent;"/><text xml:space="preserve" x="6" y="14" style="font-family: -apple-system, BlinkMacSystemFont, &quot;Segoe WPC&quot;, &quot;Segoe UI&quot;, Ubuntu, &quot;Droid Sans&quot;, sans-serif, &quot;PingFang SC&quot;; font-size: 9px; font-weight: normal; text-rendering: geometricprecision; user-select: none;"><title>float32[64,16,3,3]</title><tspan style="font-weight: bold;">W</tspan><tspan>〈64×16×3×3〉</tspan></text></g><g class="node-argument"><rect rx="3" ry="3" x="3" y="17" width="81.640625" height="14" style="fill: transparent;"/><text xml:space="preserve" x="6" y="28" style="font-family: -apple-system, BlinkMacSystemFont, &quot;Segoe WPC&quot;, &quot;Segoe UI&quot;, Ubuntu, &quot;Droid Sans&quot;, sans-serif, &quot;PingFang SC&quot;; font-size: 9px; font-weight: normal; text-rendering: geometricprecision; user-select: none;"><title>float32[64]</title><tspan style="font-weight: bold;">B</tspan><tspan>〈64〉</tspan></text></g><line class="node" x1="0" x2="87.640625" y1="0" y2="0" style="stroke: rgb(51, 51, 51); fill: none; stroke-width: 1px;"/></g><path class="node node-border" d="M5,0h77.640625a5,5 0 0 1 5,5v47a5,5 0 0 1 -5,5h-77.640625a5,5 0 0 1 -5,-5v-47a5,5 0 0 1 5,-5z" style="stroke: rgb(51, 51, 51); fill: none; stroke-width: 1px;"/></g><g id="node-name-/LeakyRelu_1" class="node graph-node" style="" transform="translate(467.2216796875,31)"><g class="node-item node-item-type node-item-type-activation" transform="translate(0,0)"><path d="M5,0h52.21875a5,5 0 0 1 5,5v13a5,5 0 0 1 -5,5h-52.21875a5,5 0 0 1 -5,-5v-13a5,5 0 0 1 5,-5z" style="stroke: rgb(0, 0, 0); fill: rgb(112, 41, 33); stroke-width: 0;"/><text x="6" y="16" style="font-family: -apple-system, BlinkMacSystemFont, &quot;Segoe WPC&quot;, &quot;Segoe UI&quot;, Ubuntu, &quot;Droid Sans&quot;, sans-serif, &quot;PingFang SC&quot;; font-size: 11px; text-rendering: geometricprecision; user-select: none; fill: rgb(255, 255, 255);">LeakyRelu</text><title>/LeakyRelu_1</title></g><path class="node node-border" d="M5,0h52.21875a5,5 0 0 1 5,5v13a5,5 0 0 1 -5,5h-52.21875a5,5 0 0 1 -5,-5v-13a5,5 0 0 1 5,-5z" style="stroke: rgb(51, 51, 51); fill: none; stroke-width: 1px;"/></g><g id="node-name-/Add" class="node graph-node" style="" transform="translate(549.4404296875,83.5)"><g class="node-item node-item-type" transform="translate(0,0)"><path d="M5,0h25.0625a5,5 0 0 1 5,5v13a5,5 0 0 1 -5,5h-25.0625a5,5 0 0 1 -5,-5v-13a5,5 0 0 1 5,-5z" style="stroke: rgb(0, 0, 0); fill: rgb(0, 0, 0); stroke-width: 0;"/><text x="6" y="16" style="font-family: -apple-system, BlinkMacSystemFont, &quot;Segoe WPC&quot;, &quot;Segoe UI&quot;, Ubuntu, &quot;Droid Sans&quot;, sans-serif, &quot;PingFang SC&quot;; font-size: 11px; text-rendering: geometricprecision; user-select: none; fill: rgb(255, 255, 255);">Add</text><title>/Add</title></g><path class="node node-border" d="M5,0h25.0625a5,5 0 0 1 5,5v13a5,5 0 0 1 -5,5h-25.0625a5,5 0 0 1 -5,-5v-13a5,5 0 0 1 5,-5z" style="stroke: rgb(51, 51, 51); fill: none; stroke-width: 1px;"/></g><g id="node-name-/fuse_conv/Conv" class="node graph-node" style="" transform="translate(604.5029296875,66.5)"><g class="node-item node-item-type node-item-type-layer" transform="translate(0,0)"><path d="M5,0h77.640625a5,5 0 0 1 5,5v18a0,0 0 0 1 0,0h-87.640625a0,0 0 0 1 0,0v-18a5,5 0 0 1 5,-5z" style="stroke: rgb(0, 0, 0); fill: rgb(51, 85, 136); stroke-width: 0;"/><text x="6" y="16" style="font-family: -apple-system, BlinkMacSystemFont, &quot;Segoe WPC&quot;, &quot;Segoe UI&quot;, Ubuntu, &quot;Droid Sans&quot;, sans-serif, &quot;PingFang SC&quot;; font-size: 11px; text-rendering: geometricprecision; user-select: none; fill: rgb(255, 255, 255);">Conv</text><title>/fuse_conv/Conv</title></g><g class="node-argument-list" transform="translate(0,23)"><path d="M0,0h87.640625a0,0 0 0 1 0,0v29a5,5 0 0 1 -5,5h-77.640625a5,5 0 0 1 -5,-5v-29a0,0 0 0 1 0,0z" style="stroke: rgb(0, 0, 0); fill: rgb(255, 255, 255); stroke-width: 0;"/><g class="node-argument"><rect rx="3" ry="3" x="3" y="3" width="81.640625" height="14" style="fill: transparent;"/><text xml:space="preserve" x="6" y="14" style="font-family: -apple-system, BlinkMacSystemFont, &quot;Segoe WPC&quot;, &quot;Segoe UI&quot;, Ubuntu, &quot;Droid Sans&quot;, sans-serif, &quot;PingFang SC&quot;; font-size: 9px; font-weight: normal; text-rendering: geometricprecision; user-select: none;"><title>float32[64,64,1,1]</title><tspan style="font-weight: bold;">W</tspan><tspan>〈64×64×1×1〉</tspan></text></g><g class="node-argument"><rect rx="3" ry="3" x="3" y="17" width="81.640625" height="14" style="fill: transparent;"/><text xml:space="preserve" x="6" y="28" style="font-family: -apple-system, BlinkMacSystemFont, &quot;Segoe WPC&quot;, &quot;Segoe UI&quot;, Ubuntu, &quot;Droid Sans&quot;, sans-serif, &quot;PingFang SC&quot;; font-size: 9px; font-weight: normal; text-rendering: geometricprecision; user-select: none;"><title>float32[64]</title><tspan style="font-weight: bold;">B</tspan><tspan>〈64〉</tspan></text></g><line class="node" x1="0" x2="87.640625" y1="0" y2="0" style="stroke: rgb(51, 51, 51); fill: none; stroke-width: 1px;"/></g><path class="node node-border" d="M5,0h77.640625a5,5 0 0 1 5,5v47a5,5 0 0 1 -5,5h-77.640625a5,5 0 0 1 -5,-5v-47a5,5 0 0 1 5,-5z" style="stroke: rgb(51, 51, 51); fill: none; stroke-width: 1px;"/></g><g id="node-name-/Relu_2" class="node graph-node" style="" transform="translate(712.1435546875,83.5)"><g class="node-item node-item-type node-item-type-activation" transform="translate(0,0)"><path d="M5,0h24.90625a5,5 0 0 1 5,5v13a5,5 0 0 1 -5,5h-24.90625a5,5 0 0 1 -5,-5v-13a5,5 0 0 1 5,-5z" style="stroke: rgb(0, 0, 0); fill: rgb(112, 41, 33); stroke-width: 0;"/><text x="6" y="16" style="font-family: -apple-system, BlinkMacSystemFont, &quot;Segoe WPC&quot;, &quot;Segoe UI&quot;, Ubuntu, &quot;Droid Sans&quot;, sans-serif, &quot;PingFang SC&quot;; font-size: 11px; text-rendering: geometricprecision; user-select: none; fill: rgb(255, 255, 255);">Relu</text><title>/Relu_2</title></g><path class="node node-border" d="M5,0h24.90625a5,5 0 0 1 5,5v13a5,5 0 0 1 -5,5h-24.90625a5,5 0 0 1 -5,-5v-13a5,5 0 0 1 5,-5z" style="stroke: rgb(51, 51, 51); fill: none; stroke-width: 1px;"/></g><g id="node-name-/conv3_combined/Conv" class="node graph-node" style="" transform="translate(767.0498046875,66.5)"><g class="node-item node-item-type node-item-type-layer" transform="translate(0,0)"><path d="M5,0h77.640625a5,5 0 0 1 5,5v18a0,0 0 0 1 0,0h-87.640625a0,0 0 0 1 0,0v-18a5,5 0 0 1 5,-5z" style="stroke: rgb(0, 0, 0); fill: rgb(51, 85, 136); stroke-width: 0;"/><text x="6" y="16" style="font-family: -apple-system, BlinkMacSystemFont, &quot;Segoe WPC&quot;, &quot;Segoe UI&quot;, Ubuntu, &quot;Droid Sans&quot;, sans-serif, &quot;PingFang SC&quot;; font-size: 11px; text-rendering: geometricprecision; user-select: none; fill: rgb(255, 255, 255);">Conv</text><title>/conv3_combined/Conv</title></g><g class="node-argument-list" transform="translate(0,23)"><path d="M0,0h87.640625a0,0 0 0 1 0,0v29a5,5 0 0 1 -5,5h-77.640625a5,5 0 0 1 -5,-5v-29a0,0 0 0 1 0,0z" style="stroke: rgb(0, 0, 0); fill: rgb(255, 255, 255); stroke-width: 0;"/><g class="node-argument"><rect rx="3" ry="3" x="3" y="3" width="81.640625" height="14" style="fill: transparent;"/><text xml:space="preserve" x="6" y="14" style="font-family: -apple-system, BlinkMacSystemFont, &quot;Segoe WPC&quot;, &quot;Segoe UI&quot;, Ubuntu, &quot;Droid Sans&quot;, sans-serif, &quot;PingFang SC&quot;; font-size: 9px; font-weight: normal; text-rendering: geometricprecision; user-select: none;"><title>float32[64,64,3,3]</title><tspan style="font-weight: bold;">W</tspan><tspan>〈64×64×3×3〉</tspan></text></g><g class="node-argument"><rect rx="3" ry="3" x="3" y="17" width="81.640625" height="14" style="fill: transparent;"/><text xml:space="preserve" x="6" y="28" style="font-family: -apple-system, BlinkMacSystemFont, &quot;Segoe WPC&quot;, &quot;Segoe UI&quot;, Ubuntu, &quot;Droid Sans&quot;, sans-serif, &quot;PingFang SC&quot;; font-size: 9px; font-weight: normal; text-rendering: geometricprecision; user-select: none;"><title>float32[64]</title><tspan style="font-weight: bold;">B</tspan><tspan>〈64〉</tspan></text></g><line class="node" x1="0" x2="87.640625" y1="0" y2="0" style="stroke: rgb(51, 51, 51); fill: none; stroke-width: 1px;"/></g><path class="node node-border" d="M5,0h77.640625a5,5 0 0 1 5,5v47a5,5 0 0 1 -5,5h-77.640625a5,5 0 0 1 -5,-5v-47a5,5 0 0 1 5,-5z" style="stroke: rgb(51, 51, 51); fill: none; stroke-width: 1px;"/></g><g id="node-name-/Relu_3" class="node graph-node" style="" transform="translate(874.6904296875,83.5)"><g class="node-item node-item-type node-item-type-activation" transform="translate(0,0)"><path d="M5,0h24.90625a5,5 0 0 1 5,5v13a5,5 0 0 1 -5,5h-24.90625a5,5 0 0 1 -5,-5v-13a5,5 0 0 1 5,-5z" style="stroke: rgb(0, 0, 0); fill: rgb(112, 41, 33); stroke-width: 0;"/><text x="6" y="16" style="font-family: -apple-system, BlinkMacSystemFont, &quot;Segoe WPC&quot;, &quot;Segoe UI&quot;, Ubuntu, &quot;Droid Sans&quot;, sans-serif, &quot;PingFang SC&quot;; font-size: 11px; text-rendering: geometricprecision; user-select: none; fill: rgb(255, 255, 255);">Relu</text><title>/Relu_3</title></g><path class="node node-border" d="M5,0h24.90625a5,5 0 0 1 5,5v13a5,5 0 0 1 -5,5h-24.90625a5,5 0 0 1 -5,-5v-13a5,5 0 0 1 5,-5z" style="stroke: rgb(51, 51, 51); fill: none; stroke-width: 1px;"/></g><g id="node-name-/Flatten" class="node graph-node" style="" transform="translate(929.5966796875,83.5)"><g class="node-item node-item-type node-item-type-shape" transform="translate(0,0)"><path d="M5,0h37.078125a5,5 0 0 1 5,5v13a5,5 0 0 1 -5,5h-37.078125a5,5 0 0 1 -5,-5v-13a5,5 0 0 1 5,-5z" style="stroke: rgb(0, 0, 0); fill: rgb(108, 79, 71); stroke-width: 0;"/><text x="6" y="16" style="font-family: -apple-system, BlinkMacSystemFont, &quot;Segoe WPC&quot;, &quot;Segoe UI&quot;, Ubuntu, &quot;Droid Sans&quot;, sans-serif, &quot;PingFang SC&quot;; font-size: 11px; text-rendering: geometricprecision; user-select: none; fill: rgb(255, 255, 255);">Flatten</text><title>/Flatten</title></g><path class="node node-border" d="M5,0h37.078125a5,5 0 0 1 5,5v13a5,5 0 0 1 -5,5h-37.078125a5,5 0 0 1 -5,-5v-13a5,5 0 0 1 5,-5z" style="stroke: rgb(51, 51, 51); fill: none; stroke-width: 1px;"/></g><g id="node-name-/fc/Gemm" class="node graph-node" style="" transform="translate(996.6748046875,66.5)"><g class="node-item node-item-type node-item-type-layer" transform="translate(0,0)"><path d="M5,0h65.90625a5,5 0 0 1 5,5v18a0,0 0 0 1 0,0h-75.90625a0,0 0 0 1 0,0v-18a5,5 0 0 1 5,-5z" style="stroke: rgb(0, 0, 0); fill: rgb(51, 85, 136); stroke-width: 0;"/><text x="6" y="16" style="font-family: -apple-system, BlinkMacSystemFont, &quot;Segoe WPC&quot;, &quot;Segoe UI&quot;, Ubuntu, &quot;Droid Sans&quot;, sans-serif, &quot;PingFang SC&quot;; font-size: 11px; text-rendering: geometricprecision; user-select: none; fill: rgb(255, 255, 255);">Gemm</text><title>/fc/Gemm</title></g><g class="node-argument-list" transform="translate(0,23)"><path d="M0,0h75.90625a0,0 0 0 1 0,0v29a5,5 0 0 1 -5,5h-65.90625a5,5 0 0 1 -5,-5v-29a0,0 0 0 1 0,0z" style="stroke: rgb(0, 0, 0); fill: rgb(255, 255, 255); stroke-width: 0;"/><g class="node-argument"><rect rx="3" ry="3" x="3" y="3" width="69.90625" height="14" style="fill: transparent;"/><text xml:space="preserve" x="6" y="14" style="font-family: -apple-system, BlinkMacSystemFont, &quot;Segoe WPC&quot;, &quot;Segoe UI&quot;, Ubuntu, &quot;Droid Sans&quot;, sans-serif, &quot;PingFang SC&quot;; font-size: 9px; font-weight: normal; text-rendering: geometricprecision; user-select: none;"><title>float32[512,7744]</title><tspan style="font-weight: bold;">B</tspan><tspan>〈512×7744〉</tspan></text></g><g class="node-argument"><rect rx="3" ry="3" x="3" y="17" width="69.90625" height="14" style="fill: transparent;"/><text xml:space="preserve" x="6" y="28" style="font-family: -apple-system, BlinkMacSystemFont, &quot;Segoe WPC&quot;, &quot;Segoe UI&quot;, Ubuntu, &quot;Droid Sans&quot;, sans-serif, &quot;PingFang SC&quot;; font-size: 9px; font-weight: normal; text-rendering: geometricprecision; user-select: none;"><title>float32[512]</title><tspan style="font-weight: bold;">C</tspan><tspan>〈512〉</tspan></text></g><line class="node" x1="0" x2="75.90625" y1="0" y2="0" style="stroke: rgb(51, 51, 51); fill: none; stroke-width: 1px;"/></g><path class="node node-border" d="M5,0h65.90625a5,5 0 0 1 5,5v47a5,5 0 0 1 -5,5h-65.90625a5,5 0 0 1 -5,-5v-47a5,5 0 0 1 5,-5z" style="stroke: rgb(51, 51, 51); fill: none; stroke-width: 1px;"/></g><g id="node-name-/Relu_4" class="node graph-node" style="" transform="translate(1092.5810546875,83.5)"><g class="node-item node-item-type node-item-type-activation" transform="translate(0,0)"><path d="M5,0h24.90625a5,5 0 0 1 5,5v13a5,5 0 0 1 -5,5h-24.90625a5,5 0 0 1 -5,-5v-13a5,5 0 0 1 5,-5z" style="stroke: rgb(0, 0, 0); fill: rgb(112, 41, 33); stroke-width: 0;"/><text x="6" y="16" style="font-family: -apple-system, BlinkMacSystemFont, &quot;Segoe WPC&quot;, &quot;Segoe UI&quot;, Ubuntu, &quot;Droid Sans&quot;, sans-serif, &quot;PingFang SC&quot;; font-size: 11px; text-rendering: geometricprecision; user-select: none; fill: rgb(255, 255, 255);">Relu</text><title>/Relu_4</title></g><path class="node node-border" d="M5,0h24.90625a5,5 0 0 1 5,5v13a5,5 0 0 1 -5,5h-24.90625a5,5 0 0 1 -5,-5v-13a5,5 0 0 1 5,-5z" style="stroke: rgb(51, 51, 51); fill: none; stroke-width: 1px;"/></g><g id="node-name-/head/Gemm" class="node graph-node" style="" transform="translate(1147.4873046875,66.5)"><g class="node-item node-item-type node-item-type-layer" transform="translate(0,0)"><path d="M5,0h65a5,5 0 0 1 5,5v18a0,0 0 0 1 0,0h-75a0,0 0 0 1 0,0v-18a5,5 0 0 1 5,-5z" style="stroke: rgb(0, 0, 0); fill: rgb(51, 85, 136); stroke-width: 0;"/><text x="6" y="16" style="font-family: -apple-system, BlinkMacSystemFont, &quot;Segoe WPC&quot;, &quot;Segoe UI&quot;, Ubuntu, &quot;Droid Sans&quot;, sans-serif, &quot;PingFang SC&quot;; font-size: 11px; text-rendering: geometricprecision; user-select: none; fill: rgb(255, 255, 255);">Gemm</text><title>/head/Gemm</title></g><g class="node-argument-list" transform="translate(0,23)"><path d="M0,0h75a0,0 0 0 1 0,0v29a5,5 0 0 1 -5,5h-65a5,5 0 0 1 -5,-5v-29a0,0 0 0 1 0,0z" style="stroke: rgb(0, 0, 0); fill: rgb(255, 255, 255); stroke-width: 0;"/><g class="node-argument"><rect rx="3" ry="3" x="3" y="3" width="69" height="14" style="fill: transparent;"/><text xml:space="preserve" x="6" y="14" style="font-family: -apple-system, BlinkMacSystemFont, &quot;Segoe WPC&quot;, &quot;Segoe UI&quot;, Ubuntu, &quot;Droid Sans&quot;, sans-serif, &quot;PingFang SC&quot;; font-size: 9px; font-weight: normal; text-rendering: geometricprecision; user-select: none;"><title>float32[3,512]</title><tspan style="font-weight: bold;">B</tspan><tspan>〈3×512〉</tspan></text></g><g class="node-argument"><rect rx="3" ry="3" x="3" y="17" width="69" height="14" style="fill: transparent;"/><text xml:space="preserve" x="6" y="28" style="font-family: -apple-system, BlinkMacSystemFont, &quot;Segoe WPC&quot;, &quot;Segoe UI&quot;, Ubuntu, &quot;Droid Sans&quot;, sans-serif, &quot;PingFang SC&quot;; font-size: 9px; font-weight: normal; text-rendering: geometricprecision; user-select: none;"><title>float32[3]</title><tspan style="font-weight: bold;">C</tspan><tspan>〈3〉</tspan></text></g><line class="node" x1="0" x2="75" y1="0" y2="0" style="stroke: rgb(51, 51, 51); fill: none; stroke-width: 1px;"/></g><path class="node node-border" d="M5,0h65a5,5 0 0 1 5,5v47a5,5 0 0 1 -5,5h-65a5,5 0 0 1 -5,-5v-47a5,5 0 0 1 5,-5z" style="stroke: rgb(51, 51, 51); fill: none; stroke-width: 1px;"/></g><g class="node" style="" transform="translate(1299.9248046875,83.5)"><g class="node-item graph-item-output" transform="translate(0,0)"><path d="M5,0h37.08984375a5,5 0 0 1 5,5v13a5,5 0 0 1 -5,5h-37.08984375a5,5 0 0 1 -5,-5v-13a5,5 0 0 1 5,-5z" style="stroke: rgb(0, 0, 0); fill: rgb(238, 238, 238); stroke-width: 0;"/><text x="6" y="16" style="font-family: -apple-system, BlinkMacSystemFont, &quot;Segoe WPC&quot;, &quot;Segoe UI&quot;, Ubuntu, &quot;Droid Sans&quot;, sans-serif, &quot;PingFang SC&quot;; font-size: 11px; text-rendering: geometricprecision; user-select: none;">output</text><title>float32[batch_size,3]</title></g><path class="node node-border" d="M5,0h37.08984375a5,5 0 0 1 5,5v13a5,5 0 0 1 -5,5h-37.08984375a5,5 0 0 1 -5,-5v-13a5,5 0 0 1 5,-5z" style="stroke: rgb(51, 51, 51); fill: none; stroke-width: 1px;"/></g></g></g></svg>